<?xml version="1.0" encoding="UTF-8"?>
<svg width="140px" height="140px" viewBox="0 0 140 140" version="1.1" xmlns="http://www.w3.org/2000/svg" xmlns:xlink="http://www.w3.org/1999/xlink">
    <!-- Generator: Sketch 43.2 (39069) - http://www.bohemiancoding.com/sketch -->
    <title>icon</title>
    <desc>Created with Sketch.</desc>
    <defs></defs>
    <g id="Page-1" stroke="none" stroke-width="1" fill="none" fill-rule="evenodd">
        <g id="icon" transform="translate(-4.000000, -14.000000)">
            <rect id="background" fill="#8BE028" x="4" y="14" width="140" height="140"></rect>
            <g id="elements" transform="translate(79.549513, 79.549513) rotate(-45.000000) translate(-79.549513, -79.549513) translate(26.049513, 20.549513)">
                <path d="M7,64.9835977 L7,65.1904297 C15.2519531,65.1904297 17.9179687,68.4912109 17.9179687,78.4570312 L17.9179687,94.1992187 C17.9179687,110.576172 25.9794922,117.8125 44.2607422,117.8125 L49.8466797,117.8125 L49.8466797,105.942383 L46.9902344,105.942383 C36.6435547,105.942383 32.9619141,102.387695 32.9619141,92.4853516 L32.9619141,74.0136719 C32.9619141,64.4921875 28.7089844,59.2871094 20.3935547,58.5253906 L20.3935547,56.7480469 C28.9628906,55.9228516 32.9619141,51.1621094 32.9619141,41.9580078 L32.9619141,25.390625 C32.9619141,15.2978516 36.5166016,11.8066406 46.9902344,11.8066406 L49.8466797,11.8066406 L49.8466797,0 L44.2607422,0 C25.9160156,0 17.9179687,6.98242187 17.9179687,22.9785156 L17.9179687,36.6259766 C17.9179687,46.5917969 15.1884766,49.9560547 7,49.9560547 L7,50.0164023 C3.09098409,50.2736953 -9.23705556e-14,53.5258787 -9.23705556e-14,57.5 C-9.23705556e-14,61.4741213 3.09098409,64.7263047 7,64.9835977 Z" id="transmitter" fill="#497614"></path>
                <g id="dots-@-15pt" transform="translate(42.000000, 50.000000)" fill="#FFFFFF">
                    <circle id="Oval-1" cx="7.5" cy="7.5" r="7.5"></circle>
                    <circle id="Oval-2" cx="32.5" cy="7.5" r="7.5"></circle>
                    <circle id="Oval-3" cx="57.5" cy="7.5" r="7.5"></circle>
                </g>
            </g>
        </g>
    </g>
</svg>