<?xml version="1.0" encoding="UTF-8"?>
<svg width="512px" height="512px" viewBox="0 0 512 512" version="1.1" xmlns="http://www.w3.org/2000/svg" xmlns:xlink="http://www.w3.org/1999/xlink">
    <!-- Generator: Sketch 42 (36781) - http://www.bohemiancoding.com/sketch -->
    <title>Untitled</title>
    <desc>Created with Sketch.</desc>
    <defs></defs>
    <g id="Page-1" stroke="none" stroke-width="1" fill="none" fill-rule="evenodd">
        <g id="icon" fill-rule="nonzero" fill="#000000">
            <path d="M157.340359,402.479435 L158.102994,403.228612 C188.630611,373.239718 210.710228,375.552 247.593389,411.784282 L305.852551,469.015341 C366.461701,528.554918 423.066826,525.571012 490.700647,459.130729 L511.366132,438.829929 L467.433006,395.672094 L456.863425,406.055153 C418.589126,443.654024 391.814132,444.114824 355.164743,408.111435 L286.805844,340.958871 C251.565988,306.340894 216.569102,302.8736 182.98788,330.322071 L176.411593,323.861835 C205.059066,289.721224 202.233102,257.879341 168.170539,224.417129 L106.857772,164.186353 C69.5047665,127.492518 69.7362395,101.881224 108.48115,63.8200471 L119.050731,53.4369882 L75.3544431,10.5118118 L54.6889581,30.8126118 C-13.1778683,97.4817882 -16.9266587,151.931482 42.2767904,210.090165 L92.7831377,259.705224 C129.666299,295.937506 132.016287,318.089035 101.725509,347.845271 L101.947784,348.063624 C88.4411018,363.207529 89.042012,386.264094 103.748982,400.711529 C118.455952,415.158965 141.926707,415.749271 157.342659,402.480941 L157.340359,402.479435 Z" id="Shape"></path>
            <path d="M314.615569,193.5616 C329.94491,208.620424 329.950275,233.031529 314.626299,248.085082 C299.302323,263.138635 274.453461,263.133365 259.123353,248.074541 C243.794012,233.015718 243.788647,208.604612 259.112623,193.551059 C274.436599,178.497506 299.285461,178.502776 314.615569,193.5616 Z" id="Shape"></path>
            <path d="M407.10285,102.7072 C422.432192,117.766024 422.437557,142.177129 407.113581,157.230682 C391.789605,172.284235 366.940743,172.278965 351.610635,157.220141 C336.281293,142.161318 336.275928,117.750212 351.599904,102.696659 C366.92388,87.6431059 391.772743,87.6483765 407.10285,102.7072 Z" id="Shape"></path>
            <path d="M499.589365,11.8528 C514.918707,26.9116235 514.924072,51.3227294 499.600096,66.3762824 C484.27612,81.4298353 459.427257,81.4245647 444.09715,66.3657412 C428.767808,51.3069176 428.762443,26.8958118 444.086419,11.8422588 C459.410395,-3.21129412 484.259257,-3.20602353 499.589365,11.8528 L499.589365,11.8528 Z" id="Shape"></path>
        </g>
    </g>
</svg>