<svg width="512" height="512" viewBox="0 0 512 512" xmlns="http://www.w3.org/2000/svg">
  <title>
    JSONFeed
  </title>
  <path d="M157.34 402.48l.763.75c30.528-29.99 52.607-27.678 89.49 8.554l58.26 57.23c60.61 59.54 117.214 56.557 184.848-9.883l20.67-20.3-43.933-43.154-10.57 10.383c-38.274 37.6-65.05 38.06-101.698 2.055l-68.36-67.15c-35.24-34.62-70.237-38.086-103.818-10.638l-6.576-6.46c28.647-34.14 25.82-65.983-8.24-99.445l-61.314-60.23c-37.356-36.697-37.125-62.31 1.62-100.37l10.57-10.382-43.697-42.925-20.665 20.3c-67.87 66.67-71.618 121.12-12.414 179.278l50.506 49.616c36.883 36.232 39.233 58.383 8.943 88.14l.222.22c-13.507 15.142-12.906 38.2 1.8 52.646 14.708 14.447 38.18 15.037 53.595 1.77l-.003-.003z"/>
  <path d="M314.616 193.562c15.33 15.058 15.334 39.47.01 54.523-15.324 15.054-40.173 15.048-55.503-.01-15.33-15.06-15.334-39.47-.01-54.524 15.324-15.05 40.172-15.043 55.503.016zm92.487-90.855c15.33 15.06 15.335 39.47.01 54.524-15.323 15.058-40.172 15.05-55.502-.01-15.33-15.06-15.33-39.47-.01-54.52 15.328-15.053 40.177-15.05 55.507.01zm92.487-90.854c15.33 15.06 15.334 39.47.01 54.523-15.324 15.054-40.173 15.05-55.503-.01-15.33-15.06-15.335-39.47-.01-54.524 15.323-15.053 40.172-15.048 55.502.01z"/>
</svg>